<svg width="22" height="22" viewBox="0 0 22 22" fill="none" xmlns="http://www.w3.org/2000/svg">
<path d="M3.1428 4.5715C2.76392 4.5715 2.40056 4.72201 2.13265 4.98992C1.86474 5.25783 1.71423 5.62119 1.71423 6.00007V18.8572C1.71423 19.2361 1.86474 19.5995 2.13265 19.8674C2.40056 20.1353 2.76392 20.2858 3.1428 20.2858H18.8571C19.236 20.2858 19.5993 20.1353 19.8672 19.8674C20.1352 19.5995 20.2857 19.2361 20.2857 18.8572V6.00007C20.2857 5.62119 20.1352 5.25783 19.8672 4.98992C19.5993 4.72201 19.236 4.5715 18.8571 4.5715H15.9999M1.71423 10.2858H20.2857M5.99995 1.71436V7.42864M15.9999 1.71436V7.42864M5.99995 4.5715H13.1428" stroke="#252A27" stroke-width="1.6" stroke-linecap="round" stroke-linejoin="round"/>
</svg>
