<svg width="20" height="19" viewBox="0 0 20 19" fill="none" xmlns="http://www.w3.org/2000/svg">
<path d="M15.7857 5.14282H4.21425C2.79409 5.14282 1.64282 6.29409 1.64282 7.71425V14.7857C1.64282 16.2058 2.79409 17.3571 4.21425 17.3571H15.7857C17.2058 17.3571 18.3571 16.2058 18.3571 14.7857V7.71425C18.3571 6.29409 17.2058 5.14282 15.7857 5.14282Z" stroke="#252A27" stroke-width="1.4" stroke-linecap="round" stroke-linejoin="round"/>
<path d="M6.14282 17.3571V5.14282" stroke="#252A27" stroke-width="1.4" stroke-linecap="round" stroke-linejoin="round"/>
<path d="M13.8572 17.3571V5.14282" stroke="#252A27" stroke-width="1.4" stroke-linecap="round" stroke-linejoin="round"/>
<path d="M6.78564 5.14275C6.78564 4.29027 7.12429 3.4727 7.72709 2.86991C8.32988 2.26711 9.14745 1.92847 9.99993 1.92847C10.8524 1.92847 11.67 2.26711 12.2728 2.86991C12.8756 3.4727 13.2142 4.29027 13.2142 5.14275" stroke="#252A27" stroke-width="1.4" stroke-linecap="round" stroke-linejoin="round"/>
</svg>
