<svg width="14" height="16" viewBox="0 0 14 16" fill="none" xmlns="http://www.w3.org/2000/svg">
<path d="M1 4.5H13" stroke="#545956" stroke-width="1.6" stroke-linecap="round" stroke-linejoin="round"/>
<path d="M2.5 4.5H11.5V13.5C11.5 13.7652 11.3946 14.0196 11.2071 14.2071C11.0196 14.3946 10.7652 14.5 10.5 14.5H3.5C3.23478 14.5 2.98043 14.3946 2.79289 14.2071C2.60536 14.0196 2.5 13.7652 2.5 13.5V4.5Z" stroke="#545956" stroke-width="1.6" stroke-linecap="round" stroke-linejoin="round"/>
<path d="M4.5 4.5V4C4.5 3.33696 4.76339 2.70107 5.23223 2.23223C5.70107 1.76339 6.33696 1.5 7 1.5C7.66304 1.5 8.29893 1.76339 8.76777 2.23223C9.23661 2.70107 9.5 3.33696 9.5 4V4.5" stroke="#545956" stroke-width="1.6" stroke-linecap="round" stroke-linejoin="round"/>
</svg>
