<svg width="18" height="20" viewBox="0 0 18 20" fill="none" xmlns="http://www.w3.org/2000/svg">
<path d="M14.7858 7.42878C14.7858 10.6302 9.00007 18.3574 9.00007 18.3574C9.00007 18.3574 3.21436 10.6302 3.21436 7.42878C3.21436 5.89431 3.82392 4.42269 4.90895 3.33766C5.99398 2.25263 7.4656 1.64307 9.00007 1.64307C10.5345 1.64307 12.0062 2.25263 13.0912 3.33766C14.1762 4.42269 14.7858 5.89431 14.7858 7.42878V7.42878Z" stroke="#252A27" stroke-width="1.6" stroke-linecap="round" stroke-linejoin="round"/>
<path d="M8.99986 9.35714C10.065 9.35714 10.9284 8.49369 10.9284 7.42857C10.9284 6.36345 10.065 5.5 8.99986 5.5C7.93474 5.5 7.07129 6.36345 7.07129 7.42857C7.07129 8.49369 7.93474 9.35714 8.99986 9.35714Z" stroke="#252A27" stroke-width="1.6" stroke-linecap="round" stroke-linejoin="round"/>
</svg>
