<svg width="22" height="22" viewBox="0 0 22 22" fill="none" xmlns="http://www.w3.org/2000/svg">
<path d="M20.2857 14.2286L14.8714 7.08578C14.7386 6.95189 14.5806 6.84561 14.4065 6.77308C14.2324 6.70056 14.0457 6.66321 13.8571 6.66321C13.6685 6.66321 13.4818 6.70056 13.3077 6.77308C13.1336 6.84561 12.9756 6.95189 12.8428 7.08578L1.71423 20.2858H20.2857M7.69995 13.1429L9.79995 14.5715C10.0419 14.7438 10.3315 14.8363 10.6285 14.8363C10.9255 14.8363 11.2151 14.7438 11.4571 14.5715L12.7285 13.6144C12.9758 13.4289 13.2766 13.3286 13.5857 13.3286C13.8948 13.3286 14.1955 13.4289 14.4428 13.6144L15.7142 14.5715C15.9548 14.7406 16.2416 14.8313 16.5357 14.8313C16.8297 14.8313 17.1165 14.7406 17.3571 14.5715L19.4714 13.1429M8.85709 5.28578C8.85709 7.25823 7.25811 8.85721 5.28566 8.85721C3.31322 8.85721 1.71423 7.25823 1.71423 5.28578C1.71423 3.31334 3.31322 1.71436 5.28566 1.71436C7.25811 1.71436 8.85709 3.31334 8.85709 5.28578Z" stroke="#252A27" stroke-width="1.6" stroke-linecap="round" stroke-linejoin="round"/>
</svg>
