<svg width="18" height="20" viewBox="0 0 18 20" fill="none" xmlns="http://www.w3.org/2000/svg">
<path d="M11.8926 18.3572H6.74979L6.10693 13.2144H12.5355L11.8926 18.3572Z" stroke="#252A27" stroke-width="1.6" stroke-linecap="round" stroke-linejoin="round"/>
<path d="M15.5956 8.80425C15.3328 9.03302 15.0262 9.20599 14.6945 9.31265C14.3628 9.41931 14.0129 9.45745 13.666 9.42474C13.3191 9.39203 12.9824 9.28916 12.6765 9.12237C12.3706 8.95558 12.1017 8.72835 11.8863 8.45449C11.6709 8.18062 11.5133 7.86583 11.4233 7.52922C11.3332 7.19262 11.3125 6.84122 11.3624 6.49637C11.4124 6.15152 11.5318 5.82041 11.7136 5.52314C11.8954 5.22588 12.1357 4.96866 12.4199 4.7671C13.5256 3.89282 17.0356 4.4071 17.0356 4.4071C17.0356 4.4071 16.7142 7.92996 15.5956 8.80425Z" stroke="#252A27" stroke-width="1.6" stroke-linecap="round" stroke-linejoin="round"/>
<path d="M11.893 8.25171C11.1496 8.86079 10.5382 9.615 10.0961 10.4683C9.65401 11.3216 9.39046 12.256 9.32157 13.2146C9.32157 9.35742 7.393 6.78599 4.17871 4.85742" stroke="#252A27" stroke-width="1.6" stroke-linecap="round" stroke-linejoin="round"/>
<path d="M2.14722 7.42851C2.77671 7.96917 3.5872 8.25212 4.41642 8.22069C5.24564 8.18926 6.03238 7.84578 6.61915 7.25901C7.20592 6.67225 7.5494 5.8855 7.58083 5.05628C7.61225 4.22706 7.32931 3.41658 6.78864 2.78708C5.50293 1.51422 0.964359 1.64279 0.964359 1.64279C0.964359 1.64279 0.861502 6.14279 2.14722 7.42851Z" stroke="#252A27" stroke-width="1.6" stroke-linecap="round" stroke-linejoin="round"/>
</svg>
