<svg width="63" height="4200" viewBox="0 0 63 4200" fill="none" xmlns="http://www.w3.org/2000/svg">
<g opacity="0.05">
<line x1="10.8419" y1="1459.86" x2="28.0666" y2="1477.09" stroke="#252A27" stroke-width="4.87188" stroke-linecap="round"/>
<path d="M9.59521 1496.67L27.4588 1478.81" stroke="#252A27" stroke-width="4.87188" stroke-linecap="round"/>
<line x1="8.91592" y1="1476.91" x2="23.5316" y2="1476.91" stroke="#252A27" stroke-width="4.87188" stroke-linecap="round"/>
<line x1="53.3778" y1="1582.74" x2="4.00032" y2="1533.36" stroke="#252A27" stroke-width="4.87188" stroke-linecap="round"/>
<path d="M57.7776 1481.97C58.7289 1481.02 58.7289 1479.48 57.7776 1478.53C56.8264 1477.58 55.284 1477.58 54.3327 1478.53L57.7776 1481.97ZM3.8069 1529.05L2.08443 1530.78L5.52937 1534.22L7.25184 1532.5L3.8069 1529.05ZM54.3327 1478.53L3.8069 1529.05L7.25184 1532.5L57.7776 1481.97L54.3327 1478.53Z" fill="#252A27"/>
<path d="M52.8034 1480.53L54.5259 1482.25L57.9708 1478.81L56.2483 1477.09L52.8034 1480.53ZM5.72254 1426.56C4.77125 1425.61 3.2289 1425.61 2.2776 1426.56C1.32631 1427.51 1.32631 1429.05 2.2776 1430.01L5.72254 1426.56ZM56.2483 1477.09L5.72254 1426.56L2.2776 1430.01L52.8034 1480.53L56.2483 1477.09Z" fill="#252A27"/>
<path d="M57.5941 1378.22C58.5453 1377.27 58.5453 1375.73 57.5941 1374.78C56.6428 1373.83 55.1004 1373.83 54.1491 1374.78L57.5941 1378.22ZM3.80632 1425.12L2.08385 1426.84L5.52879 1430.29L7.25126 1428.56L3.80632 1425.12ZM54.1491 1374.78L3.80632 1425.12L7.25126 1428.56L57.5941 1378.22L54.1491 1374.78Z" fill="#252A27"/>
<line x1="48.5424" y1="1550.26" x2="31.3177" y2="1533.04" stroke="#252A27" stroke-width="4.87188" stroke-linecap="round"/>
<path d="M49.7891 1513.45L31.9255 1531.31" stroke="#252A27" stroke-width="4.87188" stroke-linecap="round"/>
<line x1="50.4693" y1="1533.21" x2="35.8537" y2="1533.21" stroke="#252A27" stroke-width="4.87188" stroke-linecap="round"/>
<line x1="49.6898" y1="1446.33" x2="32.4651" y2="1429.11" stroke="#252A27" stroke-width="4.87188" stroke-linecap="round"/>
<path d="M50.9365 1409.52L33.073 1427.38" stroke="#252A27" stroke-width="4.87188" stroke-linecap="round"/>
<line x1="51.6158" y1="1429.28" x2="37.0002" y2="1429.28" stroke="#252A27" stroke-width="4.87188" stroke-linecap="round"/>
<line x1="11.6984" y1="1357.55" x2="28.9231" y2="1374.78" stroke="#252A27" stroke-width="4.87188" stroke-linecap="round"/>
<path d="M10.4517 1394.36L28.3152 1376.5" stroke="#252A27" stroke-width="4.87188" stroke-linecap="round"/>
<line x1="9.77139" y1="1374.6" x2="24.387" y2="1374.6" stroke="#252A27" stroke-width="4.87188" stroke-linecap="round"/>
<path d="M55.3823 1376.5L4.85652 1325.97" stroke="#252A27" stroke-width="4.87188" stroke-linecap="round"/>
<path d="M58.6331 1275.73C59.5844 1274.78 59.5844 1273.24 58.6331 1272.29C57.6818 1271.33 56.1395 1271.33 55.1882 1272.29L58.6331 1275.73ZM4.66237 1322.81L2.9399 1324.53L6.38484 1327.98L8.10731 1326.26L4.66237 1322.81ZM55.1882 1272.29L4.66237 1322.81L8.10731 1326.26L58.6331 1275.73L55.1882 1272.29Z" fill="#252A27"/>
<line x1="50.5453" y1="1344.02" x2="33.3206" y2="1326.8" stroke="#252A27" stroke-width="4.87188" stroke-linecap="round"/>
<path d="M51.792 1307.21L33.9284 1325.07" stroke="#252A27" stroke-width="4.87188" stroke-linecap="round"/>
<line x1="52.4713" y1="1326.97" x2="37.8556" y2="1326.97" stroke="#252A27" stroke-width="4.87188" stroke-linecap="round"/>
<line x1="13.3214" y1="1255.24" x2="30.5461" y2="1272.47" stroke="#252A27" stroke-width="4.87188" stroke-linecap="round"/>
<path d="M12.0747 1292.05L29.9383 1274.19" stroke="#252A27" stroke-width="4.87188" stroke-linecap="round"/>
<line x1="11.3954" y1="1272.29" x2="26.0111" y2="1272.29" stroke="#252A27" stroke-width="4.87188" stroke-linecap="round"/>
<path d="M57.0054 1274.19L6.47956 1223.66" stroke="#252A27" stroke-width="4.87188" stroke-linecap="round"/>
<path d="M60.2562 1173.42C61.2075 1172.47 61.2075 1170.93 60.2562 1169.97C59.3049 1169.02 57.7625 1169.02 56.8112 1169.97L60.2562 1173.42ZM6.28541 1220.5L4.56294 1222.22L8.00788 1225.67L9.73036 1223.95L6.28541 1220.5ZM56.8112 1169.97L6.28541 1220.5L9.73036 1223.95L60.2562 1173.42L56.8112 1169.97Z" fill="#252A27"/>
<line x1="52.1683" y1="1241.71" x2="34.9436" y2="1224.49" stroke="#252A27" stroke-width="4.87188" stroke-linecap="round"/>
<path d="M53.415 1204.9L35.5515 1222.76" stroke="#252A27" stroke-width="4.87188" stroke-linecap="round"/>
<line x1="54.0953" y1="1224.66" x2="39.4797" y2="1224.66" stroke="#252A27" stroke-width="4.87188" stroke-linecap="round"/>
<line x1="14.9454" y1="1152.93" x2="32.1701" y2="1170.16" stroke="#252A27" stroke-width="4.87188" stroke-linecap="round"/>
<path d="M13.6987 1189.74L31.5623 1171.88" stroke="#252A27" stroke-width="4.87188" stroke-linecap="round"/>
<line x1="13.0194" y1="1169.98" x2="27.6351" y2="1169.98" stroke="#252A27" stroke-width="4.87188" stroke-linecap="round"/>
<line x1="15.715" y1="1049" x2="32.9397" y2="1066.22" stroke="#252A27" stroke-width="4.87188" stroke-linecap="round"/>
<path d="M14.4683 1085.81L32.3318 1067.95" stroke="#252A27" stroke-width="4.87188" stroke-linecap="round"/>
<line x1="13.789" y1="1066.05" x2="28.4046" y2="1066.05" stroke="#252A27" stroke-width="4.87188" stroke-linecap="round"/>
<path d="M58.6294 1171.88L8.10359 1121.36" stroke="#252A27" stroke-width="4.87188" stroke-linecap="round"/>
<path d="M61.8812 1071.11C62.8325 1070.16 62.8325 1068.62 61.8812 1067.67C60.9299 1066.71 59.3875 1066.71 58.4362 1067.67L61.8812 1071.11ZM7.91041 1118.19L6.18794 1119.91L9.63288 1123.36L11.3554 1121.64L7.91041 1118.19ZM58.4362 1067.67L7.91041 1118.19L11.3554 1121.64L61.8812 1071.11L58.4362 1067.67Z" fill="#252A27"/>
<line x1="53.7933" y1="1139.4" x2="36.5686" y2="1122.18" stroke="#252A27" stroke-width="4.87188" stroke-linecap="round"/>
<path d="M55.04 1102.59L37.1765 1120.45" stroke="#252A27" stroke-width="4.87188" stroke-linecap="round"/>
<line x1="55.7193" y1="1122.35" x2="41.1037" y2="1122.35" stroke="#252A27" stroke-width="4.87188" stroke-linecap="round"/>
</g>
<g opacity="0.05">
<line x1="10.8419" y1="936.862" x2="28.0666" y2="954.087" stroke="#252A27" stroke-width="4.87188" stroke-linecap="round"/>
<path d="M9.59521 973.674L27.4588 955.81" stroke="#252A27" stroke-width="4.87188" stroke-linecap="round"/>
<line x1="8.91592" y1="953.914" x2="23.5316" y2="953.914" stroke="#252A27" stroke-width="4.87188" stroke-linecap="round"/>
<line x1="53.3778" y1="1059.74" x2="4.00032" y2="1010.36" stroke="#252A27" stroke-width="4.87188" stroke-linecap="round"/>
<path d="M57.7776 958.972C58.7289 958.021 58.7289 956.479 57.7776 955.528C56.8264 954.576 55.284 954.576 54.3327 955.528L57.7776 958.972ZM3.8069 1006.05L2.08443 1007.78L5.52937 1011.22L7.25184 1009.5L3.8069 1006.05ZM54.3327 955.528L3.8069 1006.05L7.25184 1009.5L57.7776 958.972L54.3327 955.528Z" fill="#252A27"/>
<path d="M52.8034 957.531L54.5259 959.254L57.9708 955.809L56.2483 954.086L52.8034 957.531ZM5.72254 903.56C4.77125 902.609 3.2289 902.609 2.2776 903.56C1.32631 904.512 1.32631 906.054 2.2776 907.005L5.72254 903.56ZM56.2483 954.086L5.72254 903.56L2.2776 907.005L52.8034 957.531L56.2483 954.086Z" fill="#252A27"/>
<path d="M57.5941 855.221C58.5453 854.27 58.5453 852.728 57.5941 851.777C56.6428 850.825 55.1004 850.825 54.1491 851.777L57.5941 855.221ZM3.80632 902.119L2.08385 903.842L5.52879 907.287L7.25126 905.564L3.80632 902.119ZM54.1491 851.777L3.80632 902.119L7.25126 905.564L57.5941 855.221L54.1491 851.777Z" fill="#252A27"/>
<line x1="48.5424" y1="1027.26" x2="31.3177" y2="1010.04" stroke="#252A27" stroke-width="4.87188" stroke-linecap="round"/>
<path d="M49.7891 990.451L31.9255 1008.31" stroke="#252A27" stroke-width="4.87188" stroke-linecap="round"/>
<line x1="50.4693" y1="1010.21" x2="35.8537" y2="1010.21" stroke="#252A27" stroke-width="4.87188" stroke-linecap="round"/>
<line x1="49.6898" y1="923.33" x2="32.4651" y2="906.105" stroke="#252A27" stroke-width="4.87188" stroke-linecap="round"/>
<path d="M50.9365 886.519L33.073 904.382" stroke="#252A27" stroke-width="4.87188" stroke-linecap="round"/>
<line x1="51.6158" y1="906.278" x2="37.0002" y2="906.278" stroke="#252A27" stroke-width="4.87188" stroke-linecap="round"/>
<line x1="11.6984" y1="834.552" x2="28.9231" y2="851.776" stroke="#252A27" stroke-width="4.87188" stroke-linecap="round"/>
<path d="M10.4517 871.363L28.3152 853.5" stroke="#252A27" stroke-width="4.87188" stroke-linecap="round"/>
<line x1="9.77139" y1="851.603" x2="24.387" y2="851.603" stroke="#252A27" stroke-width="4.87188" stroke-linecap="round"/>
<path d="M55.3823 853.499L4.85652 802.973" stroke="#252A27" stroke-width="4.87188" stroke-linecap="round"/>
<path d="M58.6331 752.73C59.5844 751.779 59.5844 750.237 58.6331 749.285C57.6818 748.334 56.1395 748.334 55.1882 749.285L58.6331 752.73ZM4.66237 799.811L2.9399 801.534L6.38484 804.979L8.10731 803.256L4.66237 799.811ZM55.1882 749.285L4.66237 799.811L8.10731 803.256L58.6331 752.73L55.1882 749.285Z" fill="#252A27"/>
<line x1="50.5453" y1="821.021" x2="33.3206" y2="803.797" stroke="#252A27" stroke-width="4.87188" stroke-linecap="round"/>
<path d="M51.792 784.211L33.9284 802.075" stroke="#252A27" stroke-width="4.87188" stroke-linecap="round"/>
<line x1="52.4713" y1="803.969" x2="37.8556" y2="803.969" stroke="#252A27" stroke-width="4.87188" stroke-linecap="round"/>
<line x1="13.3214" y1="732.242" x2="30.5461" y2="749.467" stroke="#252A27" stroke-width="4.87188" stroke-linecap="round"/>
<path d="M12.0747 769.053L29.9383 751.189" stroke="#252A27" stroke-width="4.87188" stroke-linecap="round"/>
<line x1="11.3954" y1="749.295" x2="26.0111" y2="749.295" stroke="#252A27" stroke-width="4.87188" stroke-linecap="round"/>
<path d="M57.0054 751.189L6.47956 700.664" stroke="#252A27" stroke-width="4.87188" stroke-linecap="round"/>
<path d="M60.2562 650.42C61.2075 649.468 61.2075 647.926 60.2562 646.975C59.3049 646.024 57.7625 646.024 56.8112 646.975L60.2562 650.42ZM6.28541 697.501L4.56294 699.223L8.00788 702.668L9.73036 700.946L6.28541 697.501ZM56.8112 646.975L6.28541 697.501L9.73036 700.946L60.2562 650.42L56.8112 646.975Z" fill="#252A27"/>
<line x1="52.1683" y1="718.711" x2="34.9436" y2="701.486" stroke="#252A27" stroke-width="4.87188" stroke-linecap="round"/>
<path d="M53.415 681.9L35.5515 699.764" stroke="#252A27" stroke-width="4.87188" stroke-linecap="round"/>
<line x1="54.0953" y1="701.66" x2="39.4797" y2="701.66" stroke="#252A27" stroke-width="4.87188" stroke-linecap="round"/>
<line x1="14.9454" y1="629.934" x2="32.1701" y2="647.158" stroke="#252A27" stroke-width="4.87188" stroke-linecap="round"/>
<path d="M13.6987 666.744L31.5623 648.881" stroke="#252A27" stroke-width="4.87188" stroke-linecap="round"/>
<line x1="13.0194" y1="646.985" x2="27.6351" y2="646.985" stroke="#252A27" stroke-width="4.87188" stroke-linecap="round"/>
<line x1="15.715" y1="526" x2="32.9397" y2="543.225" stroke="#252A27" stroke-width="4.87188" stroke-linecap="round"/>
<path d="M14.4683 562.811L32.3318 544.947" stroke="#252A27" stroke-width="4.87188" stroke-linecap="round"/>
<line x1="13.789" y1="543.051" x2="28.4046" y2="543.051" stroke="#252A27" stroke-width="4.87188" stroke-linecap="round"/>
<path d="M58.6294 648.881L8.10359 598.355" stroke="#252A27" stroke-width="4.87188" stroke-linecap="round"/>
<path d="M61.8812 548.111C62.8325 547.16 62.8325 545.617 61.8812 544.666C60.9299 543.715 59.3875 543.715 58.4362 544.666L61.8812 548.111ZM7.91041 595.192L6.18794 596.914L9.63288 600.359L11.3554 598.637L7.91041 595.192ZM58.4362 544.666L7.91041 595.192L11.3554 598.637L61.8812 548.111L58.4362 544.666Z" fill="#252A27"/>
<line x1="53.7933" y1="616.4" x2="36.5686" y2="599.176" stroke="#252A27" stroke-width="4.87188" stroke-linecap="round"/>
<path d="M55.04 579.59L37.1765 597.453" stroke="#252A27" stroke-width="4.87188" stroke-linecap="round"/>
<line x1="55.7193" y1="599.349" x2="41.1037" y2="599.349" stroke="#252A27" stroke-width="4.87188" stroke-linecap="round"/>
</g>
<g opacity="0.05">
<line x1="9.84191" y1="413.862" x2="27.0666" y2="431.087" stroke="#252A27" stroke-width="4.87188" stroke-linecap="round"/>
<path d="M8.59521 450.674L26.4588 432.81" stroke="#252A27" stroke-width="4.87188" stroke-linecap="round"/>
<line x1="7.91592" y1="430.914" x2="22.5316" y2="430.914" stroke="#252A27" stroke-width="4.87188" stroke-linecap="round"/>
<line x1="52.3778" y1="536.742" x2="3.00032" y2="487.365" stroke="#252A27" stroke-width="4.87188" stroke-linecap="round"/>
<path d="M56.7776 435.972C57.7289 435.021 57.7289 433.479 56.7776 432.528C55.8264 431.576 54.284 431.576 53.3327 432.528L56.7776 435.972ZM2.8069 483.053L1.08443 484.776L4.52937 488.221L6.25184 486.498L2.8069 483.053ZM53.3327 432.528L2.8069 483.053L6.25184 486.498L56.7776 435.972L53.3327 432.528Z" fill="#252A27"/>
<path d="M51.8034 434.531L53.5259 436.254L56.9708 432.809L55.2483 431.086L51.8034 434.531ZM4.72254 380.56C3.77125 379.609 2.2289 379.609 1.2776 380.56C0.326307 381.512 0.326307 383.054 1.2776 384.005L4.72254 380.56ZM55.2483 431.086L4.72254 380.56L1.2776 384.005L51.8034 434.531L55.2483 431.086Z" fill="#252A27"/>
<path d="M56.5941 332.221C57.5453 331.27 57.5453 329.728 56.5941 328.777C55.6428 327.825 54.1004 327.825 53.1491 328.777L56.5941 332.221ZM2.80632 379.119L1.08385 380.842L4.52879 384.287L6.25126 382.564L2.80632 379.119ZM53.1491 328.777L2.80632 379.119L6.25126 382.564L56.5941 332.221L53.1491 328.777Z" fill="#252A27"/>
<line x1="47.5424" y1="504.263" x2="30.3177" y2="487.038" stroke="#252A27" stroke-width="4.87188" stroke-linecap="round"/>
<path d="M48.7891 467.451L30.9255 485.315" stroke="#252A27" stroke-width="4.87188" stroke-linecap="round"/>
<line x1="49.4693" y1="487.211" x2="34.8537" y2="487.211" stroke="#252A27" stroke-width="4.87188" stroke-linecap="round"/>
<line x1="48.6898" y1="400.33" x2="31.4651" y2="383.105" stroke="#252A27" stroke-width="4.87188" stroke-linecap="round"/>
<path d="M49.9365 363.52L32.073 381.383" stroke="#252A27" stroke-width="4.87188" stroke-linecap="round"/>
<line x1="50.6158" y1="383.278" x2="36.0002" y2="383.278" stroke="#252A27" stroke-width="4.87188" stroke-linecap="round"/>
<line x1="10.6984" y1="311.552" x2="27.9231" y2="328.776" stroke="#252A27" stroke-width="4.87188" stroke-linecap="round"/>
<path d="M9.45166 348.363L27.3152 330.5" stroke="#252A27" stroke-width="4.87188" stroke-linecap="round"/>
<line x1="8.77139" y1="328.603" x2="23.387" y2="328.603" stroke="#252A27" stroke-width="4.87188" stroke-linecap="round"/>
<path d="M54.3823 330.499L3.85652 279.973" stroke="#252A27" stroke-width="4.87188" stroke-linecap="round"/>
<path d="M57.6331 229.73C58.5844 228.779 58.5844 227.237 57.6331 226.285C56.6818 225.334 55.1395 225.334 54.1882 226.285L57.6331 229.73ZM3.66237 276.811L1.9399 278.534L5.38484 281.979L7.10731 280.256L3.66237 276.811ZM54.1882 226.285L3.66237 276.811L7.10731 280.256L57.6331 229.73L54.1882 226.285Z" fill="#252A27"/>
<line x1="49.5453" y1="298.021" x2="32.3206" y2="280.797" stroke="#252A27" stroke-width="4.87188" stroke-linecap="round"/>
<path d="M50.792 261.211L32.9284 279.075" stroke="#252A27" stroke-width="4.87188" stroke-linecap="round"/>
<line x1="51.4713" y1="280.969" x2="36.8556" y2="280.969" stroke="#252A27" stroke-width="4.87188" stroke-linecap="round"/>
<line x1="12.3214" y1="209.242" x2="29.5461" y2="226.467" stroke="#252A27" stroke-width="4.87188" stroke-linecap="round"/>
<path d="M11.0747 246.053L28.9383 228.189" stroke="#252A27" stroke-width="4.87188" stroke-linecap="round"/>
<line x1="10.3954" y1="226.295" x2="25.0111" y2="226.295" stroke="#252A27" stroke-width="4.87188" stroke-linecap="round"/>
<path d="M56.0054 228.189L5.47956 177.664" stroke="#252A27" stroke-width="4.87188" stroke-linecap="round"/>
<path d="M59.2562 127.42C60.2075 126.468 60.2075 124.926 59.2562 123.975C58.3049 123.024 56.7625 123.024 55.8112 123.975L59.2562 127.42ZM5.28541 174.501L3.56294 176.223L7.00788 179.668L8.73036 177.946L5.28541 174.501ZM55.8112 123.975L5.28541 174.501L8.73036 177.946L59.2562 127.42L55.8112 123.975Z" fill="#252A27"/>
<line x1="51.1683" y1="195.711" x2="33.9436" y2="178.486" stroke="#252A27" stroke-width="4.87188" stroke-linecap="round"/>
<path d="M52.415 158.9L34.5515 176.764" stroke="#252A27" stroke-width="4.87188" stroke-linecap="round"/>
<line x1="53.0953" y1="178.66" x2="38.4797" y2="178.66" stroke="#252A27" stroke-width="4.87188" stroke-linecap="round"/>
<line x1="13.9454" y1="106.934" x2="31.1701" y2="124.158" stroke="#252A27" stroke-width="4.87188" stroke-linecap="round"/>
<path d="M12.6987 143.744L30.5623 125.881" stroke="#252A27" stroke-width="4.87188" stroke-linecap="round"/>
<line x1="12.0194" y1="123.985" x2="26.6351" y2="123.985" stroke="#252A27" stroke-width="4.87188" stroke-linecap="round"/>
<line x1="14.715" y1="3" x2="31.9397" y2="20.2247" stroke="#252A27" stroke-width="4.87188" stroke-linecap="round"/>
<path d="M13.4683 39.8105L31.3318 21.947" stroke="#252A27" stroke-width="4.87188" stroke-linecap="round"/>
<line x1="12.789" y1="20.0514" x2="27.4046" y2="20.0514" stroke="#252A27" stroke-width="4.87188" stroke-linecap="round"/>
<path d="M57.6294 125.881L7.10359 75.3551" stroke="#252A27" stroke-width="4.87188" stroke-linecap="round"/>
<path d="M60.8812 25.1111C61.8325 24.1598 61.8325 22.6175 60.8812 21.6662C59.9299 20.7149 58.3875 20.7149 57.4362 21.6662L60.8812 25.1111ZM6.91041 72.192L5.18794 73.9145L8.63288 77.3594L10.3554 75.6369L6.91041 72.192ZM57.4362 21.6662L6.91041 72.192L10.3554 75.6369L60.8812 25.1111L57.4362 21.6662Z" fill="#252A27"/>
<line x1="52.7933" y1="93.4004" x2="35.5686" y2="76.1757" stroke="#252A27" stroke-width="4.87188" stroke-linecap="round"/>
<path d="M54.04 56.5898L36.1765 74.4534" stroke="#252A27" stroke-width="4.87188" stroke-linecap="round"/>
<line x1="54.7193" y1="76.349" x2="40.1037" y2="76.349" stroke="#252A27" stroke-width="4.87188" stroke-linecap="round"/>
</g>
<g opacity="0.05">
<line x1="10.8419" y1="3028.61" x2="28.0666" y2="3045.83" stroke="#252A27" stroke-width="4.87188" stroke-linecap="round"/>
<path d="M9.59521 3065.42L27.4588 3047.55" stroke="#252A27" stroke-width="4.87188" stroke-linecap="round"/>
<line x1="8.91592" y1="3045.66" x2="23.5316" y2="3045.66" stroke="#252A27" stroke-width="4.87188" stroke-linecap="round"/>
<line x1="53.3778" y1="3151.49" x2="4.00032" y2="3102.11" stroke="#252A27" stroke-width="4.87188" stroke-linecap="round"/>
<path d="M57.7776 3050.72C58.7289 3049.76 58.7289 3048.22 57.7776 3047.27C56.8264 3046.32 55.284 3046.32 54.3327 3047.27L57.7776 3050.72ZM3.8069 3097.8L2.08443 3099.52L5.52937 3102.96L7.25184 3101.24L3.8069 3097.8ZM54.3327 3047.27L3.8069 3097.8L7.25184 3101.24L57.7776 3050.72L54.3327 3047.27Z" fill="#252A27"/>
<path d="M52.8034 3049.27L54.5259 3051L57.9708 3047.55L56.2483 3045.83L52.8034 3049.27ZM5.72254 2995.3C4.77125 2994.35 3.2289 2994.35 2.2776 2995.3C1.32631 2996.25 1.32631 2997.8 2.2776 2998.75L5.72254 2995.3ZM56.2483 3045.83L5.72254 2995.3L2.2776 2998.75L52.8034 3049.27L56.2483 3045.83Z" fill="#252A27"/>
<path d="M57.5941 2946.96C58.5453 2946.01 58.5453 2944.47 57.5941 2943.52C56.6428 2942.57 55.1004 2942.57 54.1491 2943.52L57.5941 2946.96ZM3.80632 2993.86L2.08385 2995.58L5.52879 2999.03L7.25126 2997.31L3.80632 2993.86ZM54.1491 2943.52L3.80632 2993.86L7.25126 2997.31L57.5941 2946.96L54.1491 2943.52Z" fill="#252A27"/>
<line x1="48.5424" y1="3119.01" x2="31.3177" y2="3101.78" stroke="#252A27" stroke-width="4.87188" stroke-linecap="round"/>
<path d="M49.7891 3082.19L31.9255 3100.06" stroke="#252A27" stroke-width="4.87188" stroke-linecap="round"/>
<line x1="50.4693" y1="3101.95" x2="35.8537" y2="3101.96" stroke="#252A27" stroke-width="4.87188" stroke-linecap="round"/>
<line x1="49.6898" y1="3015.07" x2="32.4651" y2="2997.85" stroke="#252A27" stroke-width="4.87188" stroke-linecap="round"/>
<path d="M50.9365 2978.26L33.073 2996.13" stroke="#252A27" stroke-width="4.87188" stroke-linecap="round"/>
<line x1="51.6158" y1="2998.02" x2="37.0002" y2="2998.02" stroke="#252A27" stroke-width="4.87188" stroke-linecap="round"/>
<line x1="11.6984" y1="2926.29" x2="28.9231" y2="2943.52" stroke="#252A27" stroke-width="4.87188" stroke-linecap="round"/>
<path d="M10.4517 2963.11L28.3152 2945.24" stroke="#252A27" stroke-width="4.87188" stroke-linecap="round"/>
<line x1="9.77139" y1="2943.35" x2="24.387" y2="2943.35" stroke="#252A27" stroke-width="4.87188" stroke-linecap="round"/>
<path d="M55.3823 2945.24L4.85652 2894.72" stroke="#252A27" stroke-width="4.87188" stroke-linecap="round"/>
<path d="M58.6331 2844.47C59.5844 2843.52 59.5844 2841.98 58.6331 2841.03C57.6818 2840.08 56.1395 2840.08 55.1882 2841.03L58.6331 2844.47ZM4.66237 2891.55L2.9399 2893.28L6.38484 2896.72L8.10731 2895L4.66237 2891.55ZM55.1882 2841.03L4.66237 2891.55L8.10731 2895L58.6331 2844.47L55.1882 2841.03Z" fill="#252A27"/>
<line x1="50.5453" y1="2912.76" x2="33.3206" y2="2895.54" stroke="#252A27" stroke-width="4.87188" stroke-linecap="round"/>
<path d="M51.792 2875.95L33.9284 2893.82" stroke="#252A27" stroke-width="4.87188" stroke-linecap="round"/>
<line x1="52.4713" y1="2895.71" x2="37.8556" y2="2895.71" stroke="#252A27" stroke-width="4.87188" stroke-linecap="round"/>
<line x1="13.3214" y1="2823.99" x2="30.5461" y2="2841.21" stroke="#252A27" stroke-width="4.87188" stroke-linecap="round"/>
<path d="M12.0747 2860.8L29.9383 2842.93" stroke="#252A27" stroke-width="4.87188" stroke-linecap="round"/>
<line x1="11.3954" y1="2841.04" x2="26.0111" y2="2841.04" stroke="#252A27" stroke-width="4.87188" stroke-linecap="round"/>
<path d="M57.0054 2842.93L6.47956 2792.41" stroke="#252A27" stroke-width="4.87188" stroke-linecap="round"/>
<path d="M60.2562 2742.16C61.2075 2741.21 61.2075 2739.67 60.2562 2738.72C59.3049 2737.77 57.7625 2737.77 56.8112 2738.72L60.2562 2742.16ZM6.28541 2789.24L4.56294 2790.97L8.00788 2794.41L9.73036 2792.69L6.28541 2789.24ZM56.8112 2738.72L6.28541 2789.24L9.73036 2792.69L60.2562 2742.16L56.8112 2738.72Z" fill="#252A27"/>
<line x1="52.1683" y1="2810.45" x2="34.9436" y2="2793.23" stroke="#252A27" stroke-width="4.87188" stroke-linecap="round"/>
<path d="M53.415 2773.64L35.5515 2791.51" stroke="#252A27" stroke-width="4.87188" stroke-linecap="round"/>
<line x1="54.0953" y1="2793.4" x2="39.4797" y2="2793.4" stroke="#252A27" stroke-width="4.87188" stroke-linecap="round"/>
<line x1="14.9454" y1="2721.68" x2="32.1701" y2="2738.9" stroke="#252A27" stroke-width="4.87188" stroke-linecap="round"/>
<path d="M13.6987 2758.49L31.5623 2740.62" stroke="#252A27" stroke-width="4.87188" stroke-linecap="round"/>
<line x1="13.0194" y1="2738.73" x2="27.6351" y2="2738.73" stroke="#252A27" stroke-width="4.87188" stroke-linecap="round"/>
<line x1="15.715" y1="2617.74" x2="32.9397" y2="2634.97" stroke="#252A27" stroke-width="4.87188" stroke-linecap="round"/>
<path d="M14.4683 2654.55L32.3318 2636.69" stroke="#252A27" stroke-width="4.87188" stroke-linecap="round"/>
<line x1="13.789" y1="2634.79" x2="28.4046" y2="2634.79" stroke="#252A27" stroke-width="4.87188" stroke-linecap="round"/>
<path d="M58.6294 2740.62L8.10359 2690.1" stroke="#252A27" stroke-width="4.87188" stroke-linecap="round"/>
<path d="M61.8812 2639.85C62.8325 2638.9 62.8325 2637.36 61.8812 2636.41C60.9299 2635.46 59.3875 2635.46 58.4362 2636.41L61.8812 2639.85ZM7.91041 2686.94L6.18794 2688.66L9.63288 2692.1L11.3554 2690.38L7.91041 2686.94ZM58.4362 2636.41L7.91041 2686.94L11.3554 2690.38L61.8812 2639.85L58.4362 2636.41Z" fill="#252A27"/>
<line x1="53.7933" y1="2708.14" x2="36.5686" y2="2690.92" stroke="#252A27" stroke-width="4.87188" stroke-linecap="round"/>
<path d="M55.04 2671.33L37.1765 2689.2" stroke="#252A27" stroke-width="4.87188" stroke-linecap="round"/>
<line x1="55.7193" y1="2691.09" x2="41.1037" y2="2691.09" stroke="#252A27" stroke-width="4.87188" stroke-linecap="round"/>
</g>
<g opacity="0.05">
<line x1="10.8419" y1="2505.61" x2="28.0666" y2="2522.83" stroke="#252A27" stroke-width="4.87188" stroke-linecap="round"/>
<path d="M9.59521 2542.42L27.4588 2524.55" stroke="#252A27" stroke-width="4.87188" stroke-linecap="round"/>
<line x1="8.91592" y1="2522.66" x2="23.5316" y2="2522.66" stroke="#252A27" stroke-width="4.87188" stroke-linecap="round"/>
<line x1="53.3778" y1="2628.49" x2="4.00032" y2="2579.11" stroke="#252A27" stroke-width="4.87188" stroke-linecap="round"/>
<path d="M57.7776 2527.72C58.7289 2526.76 58.7289 2525.22 57.7776 2524.27C56.8264 2523.32 55.284 2523.32 54.3327 2524.27L57.7776 2527.72ZM3.8069 2574.8L2.08443 2576.52L5.52937 2579.96L7.25184 2578.24L3.8069 2574.8ZM54.3327 2524.27L3.8069 2574.8L7.25184 2578.24L57.7776 2527.72L54.3327 2524.27Z" fill="#252A27"/>
<path d="M52.8034 2526.27L54.5259 2528L57.9708 2524.55L56.2483 2522.83L52.8034 2526.27ZM5.72254 2472.3C4.77125 2471.35 3.2289 2471.35 2.2776 2472.3C1.32631 2473.25 1.32631 2474.8 2.2776 2475.75L5.72254 2472.3ZM56.2483 2522.83L5.72254 2472.3L2.2776 2475.75L52.8034 2526.27L56.2483 2522.83Z" fill="#252A27"/>
<path d="M57.5941 2423.96C58.5453 2423.01 58.5453 2421.47 57.5941 2420.52C56.6428 2419.57 55.1004 2419.57 54.1491 2420.52L57.5941 2423.96ZM3.80632 2470.86L2.08385 2472.58L5.52879 2476.03L7.25126 2474.31L3.80632 2470.86ZM54.1491 2420.52L3.80632 2470.86L7.25126 2474.31L57.5941 2423.96L54.1491 2420.52Z" fill="#252A27"/>
<line x1="48.5424" y1="2596.01" x2="31.3177" y2="2578.78" stroke="#252A27" stroke-width="4.87188" stroke-linecap="round"/>
<path d="M49.7891 2559.19L31.9255 2577.06" stroke="#252A27" stroke-width="4.87188" stroke-linecap="round"/>
<line x1="50.4693" y1="2578.96" x2="35.8537" y2="2578.96" stroke="#252A27" stroke-width="4.87188" stroke-linecap="round"/>
<line x1="49.6898" y1="2492.07" x2="32.4651" y2="2474.85" stroke="#252A27" stroke-width="4.87188" stroke-linecap="round"/>
<path d="M50.9365 2455.26L33.073 2473.12" stroke="#252A27" stroke-width="4.87188" stroke-linecap="round"/>
<line x1="51.6158" y1="2475.02" x2="37.0002" y2="2475.02" stroke="#252A27" stroke-width="4.87188" stroke-linecap="round"/>
<line x1="11.6984" y1="2403.29" x2="28.9231" y2="2420.52" stroke="#252A27" stroke-width="4.87188" stroke-linecap="round"/>
<path d="M10.4517 2440.11L28.3152 2422.24" stroke="#252A27" stroke-width="4.87188" stroke-linecap="round"/>
<line x1="9.77139" y1="2420.35" x2="24.387" y2="2420.35" stroke="#252A27" stroke-width="4.87188" stroke-linecap="round"/>
<path d="M55.3823 2422.24L4.85652 2371.72" stroke="#252A27" stroke-width="4.87188" stroke-linecap="round"/>
<path d="M58.6331 2321.47C59.5844 2320.52 59.5844 2318.98 58.6331 2318.03C57.6818 2317.08 56.1395 2317.08 55.1882 2318.03L58.6331 2321.47ZM4.66237 2368.55L2.9399 2370.28L6.38484 2373.72L8.10731 2372L4.66237 2368.55ZM55.1882 2318.03L4.66237 2368.55L8.10731 2372L58.6331 2321.47L55.1882 2318.03Z" fill="#252A27"/>
<line x1="50.5453" y1="2389.76" x2="33.3206" y2="2372.54" stroke="#252A27" stroke-width="4.87188" stroke-linecap="round"/>
<path d="M51.792 2352.95L33.9284 2370.82" stroke="#252A27" stroke-width="4.87188" stroke-linecap="round"/>
<line x1="52.4713" y1="2372.71" x2="37.8556" y2="2372.71" stroke="#252A27" stroke-width="4.87188" stroke-linecap="round"/>
<line x1="13.3214" y1="2300.99" x2="30.5461" y2="2318.21" stroke="#252A27" stroke-width="4.87188" stroke-linecap="round"/>
<path d="M12.0747 2337.8L29.9383 2319.93" stroke="#252A27" stroke-width="4.87188" stroke-linecap="round"/>
<line x1="11.3954" y1="2318.04" x2="26.0111" y2="2318.04" stroke="#252A27" stroke-width="4.87188" stroke-linecap="round"/>
<path d="M57.0054 2319.93L6.47956 2269.41" stroke="#252A27" stroke-width="4.87188" stroke-linecap="round"/>
<path d="M60.2562 2219.16C61.2075 2218.21 61.2075 2216.67 60.2562 2215.72C59.3049 2214.77 57.7625 2214.77 56.8112 2215.72L60.2562 2219.16ZM6.28541 2266.24L4.56294 2267.97L8.00788 2271.41L9.73036 2269.69L6.28541 2266.24ZM56.8112 2215.72L6.28541 2266.24L9.73036 2269.69L60.2562 2219.16L56.8112 2215.72Z" fill="#252A27"/>
<line x1="52.1683" y1="2287.45" x2="34.9436" y2="2270.23" stroke="#252A27" stroke-width="4.87188" stroke-linecap="round"/>
<path d="M53.415 2250.64L35.5515 2268.51" stroke="#252A27" stroke-width="4.87188" stroke-linecap="round"/>
<line x1="54.0953" y1="2270.4" x2="39.4797" y2="2270.4" stroke="#252A27" stroke-width="4.87188" stroke-linecap="round"/>
<line x1="14.9454" y1="2198.68" x2="32.1701" y2="2215.9" stroke="#252A27" stroke-width="4.87188" stroke-linecap="round"/>
<path d="M13.6987 2235.49L31.5623 2217.62" stroke="#252A27" stroke-width="4.87188" stroke-linecap="round"/>
<line x1="13.0194" y1="2215.73" x2="27.6351" y2="2215.73" stroke="#252A27" stroke-width="4.87188" stroke-linecap="round"/>
<line x1="15.715" y1="2094.74" x2="32.9397" y2="2111.97" stroke="#252A27" stroke-width="4.87188" stroke-linecap="round"/>
<path d="M14.4683 2131.55L32.3318 2113.69" stroke="#252A27" stroke-width="4.87188" stroke-linecap="round"/>
<line x1="13.789" y1="2111.79" x2="28.4046" y2="2111.79" stroke="#252A27" stroke-width="4.87188" stroke-linecap="round"/>
<path d="M58.6294 2217.62L8.10359 2167.1" stroke="#252A27" stroke-width="4.87188" stroke-linecap="round"/>
<path d="M61.8812 2116.85C62.8325 2115.9 62.8325 2114.36 61.8812 2113.41C60.9299 2112.46 59.3875 2112.46 58.4362 2113.41L61.8812 2116.85ZM7.91041 2163.94L6.18794 2165.66L9.63288 2169.1L11.3554 2167.38L7.91041 2163.94ZM58.4362 2113.41L7.91041 2163.94L11.3554 2167.38L61.8812 2116.85L58.4362 2113.41Z" fill="#252A27"/>
<line x1="53.7933" y1="2185.14" x2="36.5686" y2="2167.92" stroke="#252A27" stroke-width="4.87188" stroke-linecap="round"/>
<path d="M55.04 2148.33L37.1765 2166.2" stroke="#252A27" stroke-width="4.87188" stroke-linecap="round"/>
<line x1="55.7193" y1="2168.09" x2="41.1037" y2="2168.09" stroke="#252A27" stroke-width="4.87188" stroke-linecap="round"/>
</g>
<g opacity="0.05">
<line x1="9.84191" y1="1982.61" x2="27.0666" y2="1999.83" stroke="#252A27" stroke-width="4.87188" stroke-linecap="round"/>
<path d="M8.59521 2019.42L26.4588 2001.55" stroke="#252A27" stroke-width="4.87188" stroke-linecap="round"/>
<line x1="7.91592" y1="1999.66" x2="22.5316" y2="1999.66" stroke="#252A27" stroke-width="4.87188" stroke-linecap="round"/>
<line x1="52.3778" y1="2105.49" x2="3.00032" y2="2056.11" stroke="#252A27" stroke-width="4.87188" stroke-linecap="round"/>
<path d="M56.7776 2004.72C57.7289 2003.76 57.7289 2002.22 56.7776 2001.27C55.8264 2000.32 54.284 2000.32 53.3327 2001.27L56.7776 2004.72ZM2.8069 2051.8L1.08443 2053.52L4.52937 2056.96L6.25184 2055.24L2.8069 2051.8ZM53.3327 2001.27L2.8069 2051.8L6.25184 2055.24L56.7776 2004.72L53.3327 2001.27Z" fill="#252A27"/>
<path d="M51.8034 2003.27L53.5259 2005L56.9708 2001.55L55.2483 1999.83L51.8034 2003.27ZM4.72254 1949.3C3.77125 1948.35 2.2289 1948.35 1.2776 1949.3C0.326307 1950.25 0.326307 1951.8 1.2776 1952.75L4.72254 1949.3ZM55.2483 1999.83L4.72254 1949.3L1.2776 1952.75L51.8034 2003.27L55.2483 1999.83Z" fill="#252A27"/>
<path d="M56.5941 1900.96C57.5453 1900.01 57.5453 1898.47 56.5941 1897.52C55.6428 1896.57 54.1004 1896.57 53.1491 1897.52L56.5941 1900.96ZM2.80632 1947.86L1.08385 1949.58L4.52879 1953.03L6.25126 1951.31L2.80632 1947.86ZM53.1491 1897.52L2.80632 1947.86L6.25126 1951.31L56.5941 1900.96L53.1491 1897.52Z" fill="#252A27"/>
<line x1="47.5424" y1="2073.01" x2="30.3177" y2="2055.78" stroke="#252A27" stroke-width="4.87188" stroke-linecap="round"/>
<path d="M48.7891 2036.19L30.9255 2054.06" stroke="#252A27" stroke-width="4.87188" stroke-linecap="round"/>
<line x1="49.4693" y1="2055.96" x2="34.8537" y2="2055.96" stroke="#252A27" stroke-width="4.87188" stroke-linecap="round"/>
<line x1="48.6898" y1="1969.07" x2="31.4651" y2="1951.85" stroke="#252A27" stroke-width="4.87188" stroke-linecap="round"/>
<path d="M49.9365 1932.26L32.073 1950.12" stroke="#252A27" stroke-width="4.87188" stroke-linecap="round"/>
<line x1="50.6158" y1="1952.02" x2="36.0002" y2="1952.02" stroke="#252A27" stroke-width="4.87188" stroke-linecap="round"/>
<line x1="10.6984" y1="1880.29" x2="27.9231" y2="1897.52" stroke="#252A27" stroke-width="4.87188" stroke-linecap="round"/>
<path d="M9.45166 1917.11L27.3152 1899.24" stroke="#252A27" stroke-width="4.87188" stroke-linecap="round"/>
<line x1="8.77139" y1="1897.35" x2="23.387" y2="1897.35" stroke="#252A27" stroke-width="4.87188" stroke-linecap="round"/>
<path d="M54.3823 1899.24L3.85652 1848.72" stroke="#252A27" stroke-width="4.87188" stroke-linecap="round"/>
<path d="M57.6331 1798.47C58.5844 1797.52 58.5844 1795.98 57.6331 1795.03C56.6818 1794.08 55.1395 1794.08 54.1882 1795.03L57.6331 1798.47ZM3.66237 1845.55L1.9399 1847.28L5.38484 1850.72L7.10731 1849L3.66237 1845.55ZM54.1882 1795.03L3.66237 1845.55L7.10731 1849L57.6331 1798.47L54.1882 1795.03Z" fill="#252A27"/>
<line x1="49.5453" y1="1866.76" x2="32.3206" y2="1849.54" stroke="#252A27" stroke-width="4.87188" stroke-linecap="round"/>
<path d="M50.792 1829.95L32.9284 1847.82" stroke="#252A27" stroke-width="4.87188" stroke-linecap="round"/>
<line x1="51.4713" y1="1849.71" x2="36.8556" y2="1849.71" stroke="#252A27" stroke-width="4.87188" stroke-linecap="round"/>
<line x1="12.3214" y1="1777.99" x2="29.5461" y2="1795.21" stroke="#252A27" stroke-width="4.87188" stroke-linecap="round"/>
<path d="M11.0747 1814.8L28.9383 1796.93" stroke="#252A27" stroke-width="4.87188" stroke-linecap="round"/>
<line x1="10.3954" y1="1795.04" x2="25.0111" y2="1795.04" stroke="#252A27" stroke-width="4.87188" stroke-linecap="round"/>
<path d="M56.0054 1796.93L5.47956 1746.41" stroke="#252A27" stroke-width="4.87188" stroke-linecap="round"/>
<path d="M59.2562 1696.16C60.2075 1695.21 60.2075 1693.67 59.2562 1692.72C58.3049 1691.77 56.7625 1691.77 55.8112 1692.72L59.2562 1696.16ZM5.28541 1743.24L3.56294 1744.97L7.00788 1748.41L8.73036 1746.69L5.28541 1743.24ZM55.8112 1692.72L5.28541 1743.24L8.73036 1746.69L59.2562 1696.16L55.8112 1692.72Z" fill="#252A27"/>
<line x1="51.1683" y1="1764.45" x2="33.9436" y2="1747.23" stroke="#252A27" stroke-width="4.87188" stroke-linecap="round"/>
<path d="M52.415 1727.64L34.5515 1745.51" stroke="#252A27" stroke-width="4.87188" stroke-linecap="round"/>
<line x1="53.0953" y1="1747.4" x2="38.4797" y2="1747.4" stroke="#252A27" stroke-width="4.87188" stroke-linecap="round"/>
<line x1="13.9454" y1="1675.68" x2="31.1701" y2="1692.9" stroke="#252A27" stroke-width="4.87188" stroke-linecap="round"/>
<path d="M12.6987 1712.49L30.5623 1694.62" stroke="#252A27" stroke-width="4.87188" stroke-linecap="round"/>
<line x1="12.0194" y1="1692.73" x2="26.6351" y2="1692.73" stroke="#252A27" stroke-width="4.87188" stroke-linecap="round"/>
<line x1="14.715" y1="1571.74" x2="31.9397" y2="1588.97" stroke="#252A27" stroke-width="4.87188" stroke-linecap="round"/>
<path d="M13.4683 1608.55L31.3318 1590.69" stroke="#252A27" stroke-width="4.87188" stroke-linecap="round"/>
<line x1="12.789" y1="1588.79" x2="27.4046" y2="1588.79" stroke="#252A27" stroke-width="4.87188" stroke-linecap="round"/>
<path d="M57.6294 1694.62L7.10359 1644.1" stroke="#252A27" stroke-width="4.87188" stroke-linecap="round"/>
<path d="M60.8812 1593.85C61.8325 1592.9 61.8325 1591.36 60.8812 1590.41C59.9299 1589.46 58.3875 1589.46 57.4362 1590.41L60.8812 1593.85ZM6.91041 1640.94L5.18794 1642.66L8.63288 1646.1L10.3554 1644.38L6.91041 1640.94ZM57.4362 1590.41L6.91041 1640.94L10.3554 1644.38L60.8812 1593.85L57.4362 1590.41Z" fill="#252A27"/>
<line x1="52.7933" y1="1662.14" x2="35.5686" y2="1644.92" stroke="#252A27" stroke-width="4.87188" stroke-linecap="round"/>
<path d="M54.04 1625.33L36.1765 1643.2" stroke="#252A27" stroke-width="4.87188" stroke-linecap="round"/>
<line x1="54.7193" y1="1645.09" x2="40.1037" y2="1645.09" stroke="#252A27" stroke-width="4.87188" stroke-linecap="round"/>
</g>
<g opacity="0.05">
<line x1="10.8419" y1="4074.35" x2="28.0666" y2="4091.57" stroke="#252A27" stroke-width="4.87188" stroke-linecap="round"/>
<path d="M9.59521 4111.16L27.4588 4093.3" stroke="#252A27" stroke-width="4.87188" stroke-linecap="round"/>
<line x1="8.91592" y1="4091.4" x2="23.5316" y2="4091.4" stroke="#252A27" stroke-width="4.87188" stroke-linecap="round"/>
<line x1="53.3778" y1="4197.23" x2="4.00032" y2="4147.85" stroke="#252A27" stroke-width="4.87188" stroke-linecap="round"/>
<path d="M57.7776 4096.46C58.7289 4095.51 58.7289 4093.97 57.7776 4093.01C56.8264 4092.06 55.284 4092.06 54.3327 4093.01L57.7776 4096.46ZM3.8069 4143.54L2.08443 4145.26L5.52937 4148.71L7.25184 4146.98L3.8069 4143.54ZM54.3327 4093.01L3.8069 4143.54L7.25184 4146.98L57.7776 4096.46L54.3327 4093.01Z" fill="#252A27"/>
<path d="M52.8034 4095.02L54.5259 4096.74L57.9708 4093.29L56.2483 4091.57L52.8034 4095.02ZM5.72254 4041.05C4.77125 4040.09 3.2289 4040.09 2.2776 4041.05C1.32631 4042 1.32631 4043.54 2.2776 4044.49L5.72254 4041.05ZM56.2483 4091.57L5.72254 4041.05L2.2776 4044.49L52.8034 4095.02L56.2483 4091.57Z" fill="#252A27"/>
<path d="M57.5941 3992.71C58.5453 3991.76 58.5453 3990.21 57.5941 3989.26C56.6428 3988.31 55.1004 3988.31 54.1491 3989.26L57.5941 3992.71ZM3.80632 4039.6L2.08385 4041.33L5.52879 4044.77L7.25126 4043.05L3.80632 4039.6ZM54.1491 3989.26L3.80632 4039.6L7.25126 4043.05L57.5941 3992.71L54.1491 3989.26Z" fill="#252A27"/>
<line x1="48.5424" y1="4164.75" x2="31.3177" y2="4147.52" stroke="#252A27" stroke-width="4.87188" stroke-linecap="round"/>
<path d="M49.7891 4127.94L31.9255 4145.8" stroke="#252A27" stroke-width="4.87188" stroke-linecap="round"/>
<line x1="50.4693" y1="4147.7" x2="35.8537" y2="4147.7" stroke="#252A27" stroke-width="4.87188" stroke-linecap="round"/>
<line x1="49.6898" y1="4060.82" x2="32.4651" y2="4043.59" stroke="#252A27" stroke-width="4.87188" stroke-linecap="round"/>
<path d="M50.9365 4024L33.073 4041.87" stroke="#252A27" stroke-width="4.87188" stroke-linecap="round"/>
<line x1="51.6158" y1="4043.76" x2="37.0002" y2="4043.76" stroke="#252A27" stroke-width="4.87188" stroke-linecap="round"/>
<line x1="11.6984" y1="3972.04" x2="28.9231" y2="3989.26" stroke="#252A27" stroke-width="4.87188" stroke-linecap="round"/>
<path d="M10.4517 4008.85L28.3152 3990.99" stroke="#252A27" stroke-width="4.87188" stroke-linecap="round"/>
<line x1="9.77139" y1="3989.09" x2="24.387" y2="3989.09" stroke="#252A27" stroke-width="4.87188" stroke-linecap="round"/>
<path d="M55.3823 3990.99L4.85652 3940.46" stroke="#252A27" stroke-width="4.87188" stroke-linecap="round"/>
<path d="M58.6331 3890.22C59.5844 3889.26 59.5844 3887.72 58.6331 3886.77C57.6818 3885.82 56.1395 3885.82 55.1882 3886.77L58.6331 3890.22ZM4.66237 3937.3L2.9399 3939.02L6.38484 3942.46L8.10731 3940.74L4.66237 3937.3ZM55.1882 3886.77L4.66237 3937.3L8.10731 3940.74L58.6331 3890.22L55.1882 3886.77Z" fill="#252A27"/>
<line x1="50.5453" y1="3958.51" x2="33.3206" y2="3941.28" stroke="#252A27" stroke-width="4.87188" stroke-linecap="round"/>
<path d="M51.792 3921.7L33.9284 3939.56" stroke="#252A27" stroke-width="4.87188" stroke-linecap="round"/>
<line x1="52.4713" y1="3941.45" x2="37.8556" y2="3941.46" stroke="#252A27" stroke-width="4.87188" stroke-linecap="round"/>
<line x1="13.3214" y1="3869.73" x2="30.5461" y2="3886.95" stroke="#252A27" stroke-width="4.87188" stroke-linecap="round"/>
<path d="M12.0747 3906.54L29.9383 3888.68" stroke="#252A27" stroke-width="4.87188" stroke-linecap="round"/>
<line x1="11.3954" y1="3886.78" x2="26.0111" y2="3886.78" stroke="#252A27" stroke-width="4.87188" stroke-linecap="round"/>
<path d="M57.0054 3888.68L6.47956 3838.15" stroke="#252A27" stroke-width="4.87188" stroke-linecap="round"/>
<path d="M60.2562 3787.91C61.2075 3786.96 61.2075 3785.41 60.2562 3784.46C59.3049 3783.51 57.7625 3783.51 56.8112 3784.46L60.2562 3787.91ZM6.28541 3834.99L4.56294 3836.71L8.00788 3840.15L9.73036 3838.43L6.28541 3834.99ZM56.8112 3784.46L6.28541 3834.99L9.73036 3838.43L60.2562 3787.91L56.8112 3784.46Z" fill="#252A27"/>
<line x1="52.1683" y1="3856.2" x2="34.9436" y2="3838.97" stroke="#252A27" stroke-width="4.87188" stroke-linecap="round"/>
<path d="M53.415 3819.39L35.5515 3837.25" stroke="#252A27" stroke-width="4.87188" stroke-linecap="round"/>
<line x1="54.0953" y1="3839.14" x2="39.4797" y2="3839.15" stroke="#252A27" stroke-width="4.87188" stroke-linecap="round"/>
<line x1="14.9454" y1="3767.42" x2="32.1701" y2="3784.64" stroke="#252A27" stroke-width="4.87188" stroke-linecap="round"/>
<path d="M13.6987 3804.23L31.5623 3786.37" stroke="#252A27" stroke-width="4.87188" stroke-linecap="round"/>
<line x1="13.0194" y1="3784.47" x2="27.6351" y2="3784.47" stroke="#252A27" stroke-width="4.87188" stroke-linecap="round"/>
<line x1="15.715" y1="3663.49" x2="32.9397" y2="3680.71" stroke="#252A27" stroke-width="4.87188" stroke-linecap="round"/>
<path d="M14.4683 3700.3L32.3318 3682.43" stroke="#252A27" stroke-width="4.87188" stroke-linecap="round"/>
<line x1="13.789" y1="3680.54" x2="28.4046" y2="3680.54" stroke="#252A27" stroke-width="4.87188" stroke-linecap="round"/>
<path d="M58.6294 3786.37L8.10359 3735.84" stroke="#252A27" stroke-width="4.87188" stroke-linecap="round"/>
<path d="M61.8812 3685.6C62.8325 3684.65 62.8325 3683.1 61.8812 3682.15C60.9299 3681.2 59.3875 3681.2 58.4362 3682.15L61.8812 3685.6ZM7.91041 3732.68L6.18794 3734.4L9.63288 3737.85L11.3554 3736.12L7.91041 3732.68ZM58.4362 3682.15L7.91041 3732.68L11.3554 3736.12L61.8812 3685.6L58.4362 3682.15Z" fill="#252A27"/>
<line x1="53.7933" y1="3753.89" x2="36.5686" y2="3736.66" stroke="#252A27" stroke-width="4.87188" stroke-linecap="round"/>
<path d="M55.04 3717.08L37.1765 3734.94" stroke="#252A27" stroke-width="4.87188" stroke-linecap="round"/>
<line x1="55.7193" y1="3736.84" x2="41.1037" y2="3736.84" stroke="#252A27" stroke-width="4.87188" stroke-linecap="round"/>
</g>
<g opacity="0.05">
<line x1="9.84191" y1="3551.35" x2="27.0666" y2="3568.57" stroke="#252A27" stroke-width="4.87188" stroke-linecap="round"/>
<path d="M8.59521 3588.16L26.4588 3570.3" stroke="#252A27" stroke-width="4.87188" stroke-linecap="round"/>
<line x1="7.91592" y1="3568.4" x2="22.5316" y2="3568.4" stroke="#252A27" stroke-width="4.87188" stroke-linecap="round"/>
<line x1="52.3778" y1="3674.23" x2="3.00032" y2="3624.85" stroke="#252A27" stroke-width="4.87188" stroke-linecap="round"/>
<path d="M56.7776 3573.46C57.7289 3572.51 57.7289 3570.97 56.7776 3570.01C55.8264 3569.06 54.284 3569.06 53.3327 3570.01L56.7776 3573.46ZM2.8069 3620.54L1.08443 3622.26L4.52937 3625.71L6.25184 3623.98L2.8069 3620.54ZM53.3327 3570.01L2.8069 3620.54L6.25184 3623.98L56.7776 3573.46L53.3327 3570.01Z" fill="#252A27"/>
<path d="M51.8034 3572.02L53.5259 3573.74L56.9708 3570.29L55.2483 3568.57L51.8034 3572.02ZM4.72254 3518.05C3.77125 3517.09 2.2289 3517.09 1.2776 3518.05C0.326307 3519 0.326307 3520.54 1.2776 3521.49L4.72254 3518.05ZM55.2483 3568.57L4.72254 3518.05L1.2776 3521.49L51.8034 3572.02L55.2483 3568.57Z" fill="#252A27"/>
<path d="M56.5941 3469.71C57.5453 3468.76 57.5453 3467.21 56.5941 3466.26C55.6428 3465.31 54.1004 3465.31 53.1491 3466.26L56.5941 3469.71ZM2.80632 3516.6L1.08385 3518.33L4.52879 3521.77L6.25126 3520.05L2.80632 3516.6ZM53.1491 3466.26L2.80632 3516.6L6.25126 3520.05L56.5941 3469.71L53.1491 3466.26Z" fill="#252A27"/>
<line x1="47.5424" y1="3641.75" x2="30.3177" y2="3624.52" stroke="#252A27" stroke-width="4.87188" stroke-linecap="round"/>
<path d="M48.7891 3604.94L30.9255 3622.8" stroke="#252A27" stroke-width="4.87188" stroke-linecap="round"/>
<line x1="49.4693" y1="3624.7" x2="34.8537" y2="3624.7" stroke="#252A27" stroke-width="4.87188" stroke-linecap="round"/>
<line x1="48.6898" y1="3537.82" x2="31.4651" y2="3520.59" stroke="#252A27" stroke-width="4.87188" stroke-linecap="round"/>
<path d="M49.9365 3501L32.073 3518.87" stroke="#252A27" stroke-width="4.87188" stroke-linecap="round"/>
<line x1="50.6158" y1="3520.76" x2="36.0002" y2="3520.76" stroke="#252A27" stroke-width="4.87188" stroke-linecap="round"/>
<line x1="10.6984" y1="3449.04" x2="27.9231" y2="3466.26" stroke="#252A27" stroke-width="4.87188" stroke-linecap="round"/>
<path d="M9.45166 3485.85L27.3152 3467.99" stroke="#252A27" stroke-width="4.87188" stroke-linecap="round"/>
<line x1="8.77139" y1="3466.09" x2="23.387" y2="3466.09" stroke="#252A27" stroke-width="4.87188" stroke-linecap="round"/>
<path d="M54.3823 3467.99L3.85652 3417.46" stroke="#252A27" stroke-width="4.87188" stroke-linecap="round"/>
<path d="M57.6331 3367.22C58.5844 3366.26 58.5844 3364.72 57.6331 3363.77C56.6818 3362.82 55.1395 3362.82 54.1882 3363.77L57.6331 3367.22ZM3.66237 3414.3L1.9399 3416.02L5.38484 3419.46L7.10731 3417.74L3.66237 3414.3ZM54.1882 3363.77L3.66237 3414.3L7.10731 3417.74L57.6331 3367.22L54.1882 3363.77Z" fill="#252A27"/>
<line x1="49.5453" y1="3435.51" x2="32.3206" y2="3418.28" stroke="#252A27" stroke-width="4.87188" stroke-linecap="round"/>
<path d="M50.792 3398.7L32.9284 3416.56" stroke="#252A27" stroke-width="4.87188" stroke-linecap="round"/>
<line x1="51.4713" y1="3418.45" x2="36.8556" y2="3418.46" stroke="#252A27" stroke-width="4.87188" stroke-linecap="round"/>
<line x1="12.3214" y1="3346.73" x2="29.5461" y2="3363.95" stroke="#252A27" stroke-width="4.87188" stroke-linecap="round"/>
<path d="M11.0747 3383.54L28.9383 3365.68" stroke="#252A27" stroke-width="4.87188" stroke-linecap="round"/>
<line x1="10.3954" y1="3363.78" x2="25.0111" y2="3363.78" stroke="#252A27" stroke-width="4.87188" stroke-linecap="round"/>
<path d="M56.0054 3365.68L5.47956 3315.15" stroke="#252A27" stroke-width="4.87188" stroke-linecap="round"/>
<path d="M59.2562 3264.91C60.2075 3263.96 60.2075 3262.41 59.2562 3261.46C58.3049 3260.51 56.7625 3260.51 55.8112 3261.46L59.2562 3264.91ZM5.28541 3311.99L3.56294 3313.71L7.00788 3317.15L8.73036 3315.43L5.28541 3311.99ZM55.8112 3261.46L5.28541 3311.99L8.73036 3315.43L59.2562 3264.91L55.8112 3261.46Z" fill="#252A27"/>
<line x1="51.1683" y1="3333.2" x2="33.9436" y2="3315.97" stroke="#252A27" stroke-width="4.87188" stroke-linecap="round"/>
<path d="M52.415 3296.39L34.5515 3314.25" stroke="#252A27" stroke-width="4.87188" stroke-linecap="round"/>
<line x1="53.0953" y1="3316.14" x2="38.4797" y2="3316.15" stroke="#252A27" stroke-width="4.87188" stroke-linecap="round"/>
<line x1="13.9454" y1="3244.42" x2="31.1701" y2="3261.64" stroke="#252A27" stroke-width="4.87188" stroke-linecap="round"/>
<path d="M12.6987 3281.23L30.5623 3263.37" stroke="#252A27" stroke-width="4.87188" stroke-linecap="round"/>
<line x1="12.0194" y1="3261.47" x2="26.6351" y2="3261.47" stroke="#252A27" stroke-width="4.87188" stroke-linecap="round"/>
<line x1="14.715" y1="3140.49" x2="31.9397" y2="3157.71" stroke="#252A27" stroke-width="4.87188" stroke-linecap="round"/>
<path d="M13.4683 3177.3L31.3318 3159.43" stroke="#252A27" stroke-width="4.87188" stroke-linecap="round"/>
<line x1="12.789" y1="3157.54" x2="27.4046" y2="3157.54" stroke="#252A27" stroke-width="4.87188" stroke-linecap="round"/>
<path d="M57.6294 3263.37L7.10359 3212.84" stroke="#252A27" stroke-width="4.87188" stroke-linecap="round"/>
<path d="M60.8812 3162.6C61.8325 3161.65 61.8325 3160.1 60.8812 3159.15C59.9299 3158.2 58.3875 3158.2 57.4362 3159.15L60.8812 3162.6ZM6.91041 3209.68L5.18794 3211.4L8.63288 3214.85L10.3554 3213.12L6.91041 3209.68ZM57.4362 3159.15L6.91041 3209.68L10.3554 3213.12L60.8812 3162.6L57.4362 3159.15Z" fill="#252A27"/>
<line x1="52.7933" y1="3230.89" x2="35.5686" y2="3213.66" stroke="#252A27" stroke-width="4.87188" stroke-linecap="round"/>
<path d="M54.04 3194.08L36.1765 3211.94" stroke="#252A27" stroke-width="4.87188" stroke-linecap="round"/>
<line x1="54.7193" y1="3213.84" x2="40.1037" y2="3213.84" stroke="#252A27" stroke-width="4.87188" stroke-linecap="round"/>
</g>
</svg>
