<svg width="27" height="266" viewBox="0 0 27 266" fill="none" xmlns="http://www.w3.org/2000/svg">
<path d="M26.9072 1C26.9072 0.723858 26.6834 0.5 26.4072 0.5C26.1311 0.5 25.9072 0.723858 25.9072 1L26.9072 1ZM25.9072 179.808V180.308H26.9072V179.808H25.9072ZM25.9072 1L25.9072 179.808H26.9072L26.9072 1L25.9072 1Z" fill="#9B9E9D" fill-opacity="0.5"/>
<path d="M0.5 1C0.5 0.723858 0.276142 0.5 0 0.5C-0.276142 0.5 -0.5 0.723858 -0.5 1L0.5 1ZM-0.5 179.808L-0.5 180.308H0.5L0.5 179.808H-0.5ZM-0.5 1L-0.5 179.808H0.5L0.5 1L-0.5 1Z" fill="#9B9E9D" fill-opacity="0.5"/>
<line x1="20.2045" y1="42.7998" x2="14.0523" y2="36.6476" stroke="#9B9E9D" stroke-opacity="0.5" stroke-linecap="round"/>
<path d="M20.1821 30.584L14.254 36.5121" stroke="#9B9E9D" stroke-opacity="0.5" stroke-linecap="round"/>
<line x1="20.7161" y1="36.833" x2="15.249" y2="36.833" stroke="#9B9E9D" stroke-opacity="0.5" stroke-linecap="round"/>
<line x1="5.21663" y1="2.02148" x2="22.039" y2="18.8439" stroke="#9B9E9D" stroke-opacity="0.5" stroke-linecap="round"/>
<path d="M4.4111 35.6806C4.21583 35.8759 4.21583 36.1925 4.4111 36.3877C4.60636 36.583 4.92294 36.583 5.1182 36.3877L4.4111 35.6806ZM21.8855 19.6204L22.2391 19.2669L21.532 18.5598L21.1784 18.9133L21.8855 19.6204ZM5.1182 36.3877L21.8855 19.6204L21.1784 18.9133L4.4111 35.6806L5.1182 36.3877Z" fill="#9B9E9D" fill-opacity="0.5"/>
<path d="M5.62528 36.1582L5.27173 35.8046L4.56462 36.5117L4.91818 36.8653L5.62528 36.1582ZM21.6855 53.6326C21.8808 53.8279 22.1973 53.8279 22.3926 53.6326C22.5879 53.4373 22.5879 53.1207 22.3926 52.9255L21.6855 53.6326ZM4.91818 36.8653L21.6855 53.6326L22.3926 52.9255L5.62528 36.1582L4.91818 36.8653Z" fill="#9B9E9D" fill-opacity="0.5"/>
<path d="M4.47164 70.1103C4.27638 70.3056 4.27638 70.6222 4.47164 70.8174C4.6669 71.0127 4.98349 71.0127 5.17875 70.8174L4.47164 70.1103ZM21.8853 54.1108L22.2389 53.7573L21.5318 53.0502L21.1782 53.4037L21.8853 54.1108ZM5.17875 70.8174L21.8853 54.1108L21.1782 53.4037L4.47164 70.1103L5.17875 70.8174Z" fill="#9B9E9D" fill-opacity="0.5"/>
<line x1="6.8221" y1="12.7988" x2="12.9743" y2="18.9511" stroke="#9B9E9D" stroke-opacity="0.5" stroke-linecap="round"/>
<path d="M6.84448 25.0146L12.7726 19.0865" stroke="#9B9E9D" stroke-opacity="0.5" stroke-linecap="round"/>
<line x1="6.31055" y1="18.7656" x2="11.7776" y2="18.7656" stroke="#9B9E9D" stroke-opacity="0.5" stroke-linecap="round"/>
<line x1="6.44124" y1="47.291" x2="12.5935" y2="53.4433" stroke="#9B9E9D" stroke-opacity="0.5" stroke-linecap="round"/>
<path d="M6.46362 59.5068L12.3918 53.5787" stroke="#9B9E9D" stroke-opacity="0.5" stroke-linecap="round"/>
<line x1="5.92969" y1="53.2578" x2="11.3968" y2="53.2578" stroke="#9B9E9D" stroke-opacity="0.5" stroke-linecap="round"/>
<line x1="19.9206" y1="76.752" x2="13.7683" y2="70.5997" stroke="#9B9E9D" stroke-opacity="0.5" stroke-linecap="round"/>
<path d="M19.8982 64.5361L13.9701 70.4643" stroke="#9B9E9D" stroke-opacity="0.5" stroke-linecap="round"/>
<line x1="20.4321" y1="70.7852" x2="14.9651" y2="70.7852" stroke="#9B9E9D" stroke-opacity="0.5" stroke-linecap="round"/>
<path d="M4.98779 70.4639L21.7551 87.2312" stroke="#9B9E9D" stroke-opacity="0.5" stroke-linecap="round"/>
<path d="M4.12692 104.123C3.93165 104.318 3.93165 104.635 4.12692 104.83C4.32218 105.025 4.63876 105.025 4.83402 104.83L4.12692 104.123ZM21.6013 88.0628L21.9549 87.7092L21.2478 87.0021L20.8942 87.3557L21.6013 88.0628ZM4.83402 104.83L21.6013 88.0628L20.8942 87.3557L4.12692 104.123L4.83402 104.83Z" fill="#9B9E9D" fill-opacity="0.5"/>
<line x1="6.15706" y1="81.2422" x2="12.3093" y2="87.3944" stroke="#9B9E9D" stroke-opacity="0.5" stroke-linecap="round"/>
<path d="M6.17969 93.458L12.1078 87.5299" stroke="#9B9E9D" stroke-opacity="0.5" stroke-linecap="round"/>
<line x1="5.64551" y1="87.209" x2="11.1126" y2="87.209" stroke="#9B9E9D" stroke-opacity="0.5" stroke-linecap="round"/>
<line x1="19.3818" y1="110.704" x2="13.2295" y2="104.552" stroke="#9B9E9D" stroke-opacity="0.5" stroke-linecap="round"/>
<path d="M19.3594 98.4883L13.4312 104.416" stroke="#9B9E9D" stroke-opacity="0.5" stroke-linecap="round"/>
<line x1="19.8933" y1="104.736" x2="14.4262" y2="104.736" stroke="#9B9E9D" stroke-opacity="0.5" stroke-linecap="round"/>
<path d="M4.44873 104.416L21.2161 121.183" stroke="#9B9E9D" stroke-opacity="0.5" stroke-linecap="round"/>
<path d="M3.58785 138.075C3.39259 138.27 3.39259 138.587 3.58785 138.782C3.78312 138.978 4.0997 138.978 4.29496 138.782L3.58785 138.075ZM21.0623 122.015L21.4158 121.661L20.7087 120.954L20.3552 121.308L21.0623 122.015ZM4.29496 138.782L21.0623 122.015L20.3552 121.308L3.58785 138.075L4.29496 138.782Z" fill="#9B9E9D" fill-opacity="0.5"/>
<line x1="5.61824" y1="115.195" x2="11.7705" y2="121.348" stroke="#9B9E9D" stroke-opacity="0.5" stroke-linecap="round"/>
<path d="M5.64062 127.411L11.5688 121.483" stroke="#9B9E9D" stroke-opacity="0.5" stroke-linecap="round"/>
<line x1="5.10693" y1="121.162" x2="10.574" y2="121.162" stroke="#9B9E9D" stroke-opacity="0.5" stroke-linecap="round"/>
<line x1="18.8427" y1="144.656" x2="12.6904" y2="138.504" stroke="#9B9E9D" stroke-opacity="0.5" stroke-linecap="round"/>
<path d="M18.8203 132.44L12.8922 138.369" stroke="#9B9E9D" stroke-opacity="0.5" stroke-linecap="round"/>
<line x1="19.354" y1="138.689" x2="13.8869" y2="138.689" stroke="#9B9E9D" stroke-opacity="0.5" stroke-linecap="round"/>
<line x1="18.5878" y1="179.147" x2="12.4356" y2="172.995" stroke="#9B9E9D" stroke-opacity="0.5" stroke-linecap="round"/>
<path d="M18.5654 166.932L12.6373 172.86" stroke="#9B9E9D" stroke-opacity="0.5" stroke-linecap="round"/>
<line x1="19.0994" y1="173.18" x2="13.6323" y2="173.18" stroke="#9B9E9D" stroke-opacity="0.5" stroke-linecap="round"/>
<path d="M3.90991 138.368L20.6772 155.135" stroke="#9B9E9D" stroke-opacity="0.5" stroke-linecap="round"/>
<path d="M3.04928 172.027C2.85402 172.223 2.85402 172.539 3.04928 172.734C3.24454 172.93 3.56112 172.93 3.75639 172.734L3.04928 172.027ZM20.5237 155.967L20.8773 155.614L20.1702 154.906L19.8166 155.26L20.5237 155.967ZM3.75639 172.734L20.5237 155.967L19.8166 155.26L3.04928 172.027L3.75639 172.734Z" fill="#9B9E9D" fill-opacity="0.5"/>
<line x1="5.07942" y1="149.146" x2="11.2317" y2="155.299" stroke="#9B9E9D" stroke-opacity="0.5" stroke-linecap="round"/>
<path d="M5.10181 161.362L11.0299 155.434" stroke="#9B9E9D" stroke-opacity="0.5" stroke-linecap="round"/>
<line x1="4.56787" y1="155.113" x2="10.0349" y2="155.113" stroke="#9B9E9D" stroke-opacity="0.5" stroke-linecap="round"/>
<path d="M26.9072 181.058L26.9072 180.558L25.9072 180.558L25.9072 181.058L26.9072 181.058ZM25.9072 353.425C25.9072 353.701 26.1311 353.925 26.4072 353.925C26.6834 353.925 26.9072 353.701 26.9072 353.425L25.9072 353.425ZM25.9072 181.058L25.9072 353.425L26.9072 353.425L26.9072 181.058L25.9072 181.058Z" fill="#9B9E9D" fill-opacity="0.5"/>
<path d="M0.671631 181.058L0.671631 180.558L-0.328369 180.558L-0.328369 181.058L0.671631 181.058ZM-0.328354 353.425C-0.328354 353.701 -0.104496 353.925 0.171646 353.925C0.447788 353.925 0.671646 353.701 0.671646 353.425L-0.328354 353.425ZM-0.328369 181.058L-0.328354 353.425L0.671646 353.425L0.671631 181.058L-0.328369 181.058Z" fill="#9B9E9D" fill-opacity="0.5"/>
<line x1="20.1601" y1="215.169" x2="13.9457" y2="208.955" stroke="#9B9E9D" stroke-opacity="0.5" stroke-linecap="round"/>
<path d="M20.1309 202.842L14.149 208.824" stroke="#9B9E9D" stroke-opacity="0.5" stroke-linecap="round"/>
<line x1="20.6743" y1="209.144" x2="15.1486" y2="209.144" stroke="#9B9E9D" stroke-opacity="0.5" stroke-linecap="round"/>
<line x1="3.71175" y1="172.709" x2="22.0046" y2="191.002" stroke="#9B9E9D" stroke-opacity="0.5" stroke-linecap="round"/>
<path d="M4.22018 207.988C4.02491 208.184 4.02491 208.5 4.22018 208.695C4.41544 208.891 4.73202 208.891 4.92728 208.695L4.22018 207.988ZM21.8466 191.776L22.2001 191.423L21.493 190.715L21.1395 191.069L21.8466 191.776ZM4.92728 208.695L21.8466 191.776L21.1395 191.069L4.22018 207.988L4.92728 208.695Z" fill="#9B9E9D" fill-opacity="0.5"/>
<path d="M5.439 208.471L5.08545 208.117L4.37834 208.824L4.7319 209.178L5.439 208.471ZM21.6512 226.097C21.8464 226.292 22.163 226.292 22.3583 226.097C22.5536 225.902 22.5536 225.585 22.3583 225.39L21.6512 226.097ZM4.7319 209.178L21.6512 226.097L22.3583 225.39L5.439 208.471L4.7319 209.178Z" fill="#9B9E9D" fill-opacity="0.5"/>
<path d="M4.28121 242.73C4.08595 242.926 4.08595 243.242 4.28121 243.438C4.47647 243.633 4.79306 243.633 4.98832 243.438L4.28121 242.73ZM21.8463 226.58L22.1999 226.226L21.4928 225.519L21.1392 225.872L21.8463 226.58ZM4.98832 243.438L21.8463 226.58L21.1392 225.872L4.28121 242.73L4.98832 243.438Z" fill="#9B9E9D" fill-opacity="0.5"/>
<line x1="6.64339" y1="184.896" x2="12.8578" y2="191.111" stroke="#9B9E9D" stroke-opacity="0.5" stroke-linecap="round"/>
<path d="M6.67236 197.223L12.6542 191.241" stroke="#9B9E9D" stroke-opacity="0.5" stroke-linecap="round"/>
<line x1="6.12915" y1="190.922" x2="11.6548" y2="190.922" stroke="#9B9E9D" stroke-opacity="0.5" stroke-linecap="round"/>
<line x1="6.25911" y1="219.7" x2="12.4735" y2="225.915" stroke="#9B9E9D" stroke-opacity="0.5" stroke-linecap="round"/>
<path d="M6.28809 232.027L12.27 226.045" stroke="#9B9E9D" stroke-opacity="0.5" stroke-linecap="round"/>
<line x1="5.74463" y1="225.727" x2="11.2703" y2="225.727" stroke="#9B9E9D" stroke-opacity="0.5" stroke-linecap="round"/>
<line x1="19.8735" y1="249.429" x2="13.659" y2="243.214" stroke="#9B9E9D" stroke-opacity="0.5" stroke-linecap="round"/>
<path d="M19.8442 237.102L13.8624 243.083" stroke="#9B9E9D" stroke-opacity="0.5" stroke-linecap="round"/>
<line x1="20.3877" y1="243.402" x2="14.862" y2="243.402" stroke="#9B9E9D" stroke-opacity="0.5" stroke-linecap="round"/>
<path d="M4.79883 243.084L21.7181 260.003" stroke="#9B9E9D" stroke-opacity="0.5" stroke-linecap="round"/>
<path d="M3.93356 277.051C3.73829 277.246 3.73829 277.563 3.93356 277.758C4.12882 277.953 4.4454 277.953 4.64066 277.758L3.93356 277.051ZM21.56 260.839L21.9135 260.485L21.2064 259.778L20.8528 260.131L21.56 260.839ZM4.64066 277.758L21.56 260.839L20.8528 260.131L3.93356 277.051L4.64066 277.758Z" fill="#9B9E9D" fill-opacity="0.5"/>
<line x1="5.97273" y1="253.96" x2="12.1872" y2="260.174" stroke="#9B9E9D" stroke-opacity="0.5" stroke-linecap="round"/>
<path d="M6.00171 266.287L11.9836 260.305" stroke="#9B9E9D" stroke-opacity="0.5" stroke-linecap="round"/>
<line x1="5.45825" y1="259.986" x2="10.9839" y2="259.986" stroke="#9B9E9D" stroke-opacity="0.5" stroke-linecap="round"/>
</svg>
